<svg xmlns="http://www.w3.org/2000/svg"  viewBox="0 0 64 64" width="64px" height="64px" baseProfile="basic"><linearGradient id="m7ZDF04toHge-yT_xvijGa" x1="15" x2="15" y1="54.362" y2="49.979" gradientTransform="matrix(1 0 0 -1 0 66)" gradientUnits="userSpaceOnUse"><stop offset="0" stop-color="#6dc7ff"/><stop offset="1" stop-color="#e6abff"/></linearGradient><path fill="url(#m7ZDF04toHge-yT_xvijGa)" d="M12,18v-4.667C12,12.597,12.597,12,13.333,12H18L12,18z"/><linearGradient id="m7ZDF04toHge-yT_xvijGb" x1="32" x2="32" y1="59.681" y2="6.301" gradientTransform="matrix(1 0 0 -1 0 66)" gradientUnits="userSpaceOnUse"><stop offset="0" stop-color="#1a6dff"/><stop offset="1" stop-color="#c822ff"/></linearGradient><path fill="url(#m7ZDF04toHge-yT_xvijGb)" d="M51,8H13c-2.757,0-5,2.243-5,5v38c0,2.757,2.243,5,5,5h38c2.757,0,5-2.243,5-5V13	C56,10.243,53.757,8,51,8z M51,54h-2v-2h-2v2h-2v-2h-2v2h-2v-2h-2v2h-2v-2h-2v2h-2v-2h-2v2h-2v-2h-2v2h-2v-2h-2v2h-2v-2h-2v2h-2v-2	h-2v2h-2c-1.654,0-3-1.346-3-3v-2.026C10.838,49.609,11.87,50,13,50h38c1.13,0,2.162-0.391,3-1.026V51C54,52.654,52.654,54,51,54z M54,45c0,1.654-1.346,3-3,3H13c-1.654,0-3-1.346-3-3V13c0-1.654,1.346-3,3-3h38c1.654,0,3,1.346,3,3V45z"/><linearGradient id="m7ZDF04toHge-yT_xvijGc" x1="32" x2="32" y1="18" y2="40" gradientUnits="userSpaceOnUse"><stop offset="0" stop-color="#6dc7ff"/><stop offset="1" stop-color="#e6abff"/></linearGradient><path fill="url(#m7ZDF04toHge-yT_xvijGc)" d="M25.4,19.1v2.2c0,0.608,0.492,1.1,1.1,1.1h3.3v16.5c0,0.608,0.492,1.1,1.1,1.1h2.2	c0.608,0,1.1-0.492,1.1-1.1V22.4h3.3c0.608,0,1.1-0.492,1.1-1.1v-2.2c0-0.608-0.492-1.1-1.1-1.1h-11	C25.892,18,25.4,18.492,25.4,19.1z"/></svg>