<svg viewBox="0 0 500 500" xmlns="http://www.w3.org/2000/svg" xmlns:xlink="http://www.w3.org/1999/xlink"><linearGradient id="linear-gradient" gradientUnits="userSpaceOnUse" x1="73.223" x2="426.777" y1="73.223" y2="426.777"><stop offset="0" stop-color="#ea00ff"></stop><stop offset="1" stop-color="#10109e"></stop></linearGradient><linearGradient id="linear-gradient-2" gradientUnits="userSpaceOnUse" x1="190.488" x2="270.363" y1="112.643" y2="192.517"><stop offset="0" stop-opacity=".35"></stop><stop offset="1" stop-opacity="0"></stop></linearGradient><linearGradient id="linear-gradient-3" x1="219.065" x2="426.78" xlink:href="#linear-gradient-2" y1="219.065" y2="426.78"></linearGradient><g id="Layer_2" data-name="Layer 2"><g id="_14" data-name="14"><g id="M"><rect id="Base" fill="url(#linear-gradient)" height="500" rx="250" width="500"></rect><path d="m250 212.88-39.15-120.6 59.11 59.11z" fill="url(#linear-gradient-2)"></path><path d="m500 250a249.989 249.989 0 0 1 -250 250q-1.8 0-3.6-.03l-92.25-92.25h56.7v-131.4l39.15 121.05 39.15-120.6v130.95h56.7v-315.44l154.12 154.12q.03 1.8.03 3.6z" fill="url(#linear-gradient-3)"></path><path id="M-2" d="m345.849 92.276v315.448h-56.7v-130.949l-39.149 120.599-39.15-121.049v131.4h-56.7v-315.449h56.7l39.15 120.599 39.15-120.6z" fill="#fff" data-name="M"></path></g></g></g></svg>